<svg version="1.1" id="Layer_1" xmlns="http://www.w3.org/2000/svg" xmlns:xlink="http://www.w3.org/1999/xlink" x="0px" y="0px"
	 width="100%" viewBox="0 0 1222 1260" enable-background="new 0 0 1222 1260" xml:space="preserve">
<path fill="#1A1A1A" opacity="1.000000" stroke="none" 
	d="
M528.000000,1261.000000 
	C352.000000,1261.000000 176.500000,1261.000000 1.000000,1261.000000 
	C1.000000,841.000000 1.000000,421.000000 1.000000,1.000000 
	C408.333344,1.000000 815.666687,1.000000 1223.000000,1.000000 
	C1223.000000,421.000000 1223.000000,841.000000 1223.000000,1261.000000 
	C991.500000,1261.000000 760.000000,1261.000000 528.000000,1261.000000 
M653.986694,653.591431 
	C664.793640,677.199463 675.599487,700.808105 686.407898,724.415466 
	C706.439636,768.167969 726.444580,811.932678 746.513794,855.668030 
	C764.358521,894.555786 789.918091,927.437500 824.453918,952.776062 
	C874.733032,989.665466 931.701355,1004.792297 993.598999,1002.816833 
	C994.986511,1002.772461 996.361389,1002.329102 998.553284,1001.920776 
	C873.717834,729.342468 749.209900,457.479248 624.346130,184.839127 
	C621.679443,187.201126 619.913879,188.655899 618.270081,190.237122 
	C590.243774,217.195450 567.342896,247.788635 552.183289,283.823212 
	C532.709839,330.112030 530.485291,376.953491 549.356628,423.845398 
	C558.297729,446.062286 568.932678,467.600311 578.890381,489.404694 
	C603.786865,543.920166 628.734863,598.411987 653.986694,653.591431 
M502.633392,814.286926 
	C513.992249,782.284180 525.373352,750.289368 536.703918,718.276611 
	C548.550293,684.806274 562.855286,652.673645 586.685425,625.670654 
	C587.065979,625.239441 587.077820,624.482788 587.265625,623.865173 
	C586.678345,623.479858 586.304077,623.057251 585.866394,622.975891 
	C583.085571,622.458496 580.306580,621.861389 577.498047,621.572754 
	C528.642151,616.551819 483.339233,627.351990 441.964508,653.468689 
	C394.380463,683.504944 360.532318,725.854004 336.896332,776.303528 
	C303.767670,847.014404 271.577972,918.165283 239.007874,989.137634 
	C237.170410,993.141541 235.525375,997.233704 233.483337,1002.002869 
	C236.003601,1002.264709 237.586288,1002.490479 239.176773,1002.585266 
	C277.612183,1004.875610 314.987885,999.599548 351.074921,986.183899 
	C397.287872,969.003906 434.353790,940.119324 461.793335,898.943481 
	C479.208618,872.810181 490.562988,843.822815 502.633392,814.286926 
z"/>
<path fill="#D8C279" opacity="1.000000" stroke="none" 
	d="
M653.824463,653.252380 
	C628.734863,598.411987 603.786865,543.920166 578.890381,489.404694 
	C568.932678,467.600311 558.297729,446.062286 549.356628,423.845398 
	C530.485291,376.953491 532.709839,330.112030 552.183289,283.823212 
	C567.342896,247.788635 590.243774,217.195450 618.270081,190.237122 
	C619.913879,188.655899 621.679443,187.201126 624.346130,184.839127 
	C749.209900,457.479248 873.717834,729.342468 998.553284,1001.920776 
	C996.361389,1002.329102 994.986511,1002.772461 993.598999,1002.816833 
	C931.701355,1004.792297 874.733032,989.665466 824.453918,952.776062 
	C789.918091,927.437500 764.358521,894.555786 746.513794,855.668030 
	C726.444580,811.932678 706.439636,768.167969 686.407898,724.415466 
	C675.599487,700.808105 664.793640,677.199463 653.824463,653.252380 
z"/>
<path fill="#D7C279" opacity="1.000000" stroke="none" 
	d="
M502.485535,814.645386 
	C490.562988,843.822815 479.208618,872.810181 461.793335,898.943481 
	C434.353790,940.119324 397.287872,969.003906 351.074921,986.183899 
	C314.987885,999.599548 277.612183,1004.875610 239.176773,1002.585266 
	C237.586288,1002.490479 236.003601,1002.264709 233.483337,1002.002869 
	C235.525375,997.233704 237.170410,993.141541 239.007874,989.137634 
	C271.577972,918.165283 303.767670,847.014404 336.896332,776.303528 
	C360.532318,725.854004 394.380463,683.504944 441.964508,653.468689 
	C483.339233,627.351990 528.642151,616.551819 577.498047,621.572754 
	C580.306580,621.861389 583.085571,622.458496 585.866394,622.975891 
	C586.304077,623.057251 586.678345,623.479858 587.265625,623.865173 
	C587.077820,624.482788 587.065979,625.239441 586.685425,625.670654 
	C562.855286,652.673645 548.550293,684.806274 536.703918,718.276611 
	C525.373352,750.289368 513.992249,782.284180 502.485535,814.645386 
z"/>
</svg>